Coordinates
version=1
nRows=14
nColumns=40
inDegrees=yes

Units are S.I. units (second, meters, Newtons, ...)
Angles are in degrees.

endheader
time	pelvis_tilt	pelvis_list	pelvis_rotation	pelvis_tx	pelvis_ty	pelvis_tz	hip_flexion_r	hip_adduction_r	hip_rotation_r	knee_angle_r	knee_angle_r_beta	ankle_angle_r	subtalar_angle_r	mtp_angle_r	hip_flexion_l	hip_adduction_l	hip_rotation_l	knee_angle_l	knee_angle_l_beta	ankle_angle_l	subtalar_angle_l	mtp_angle_l	lumbar_extension	lumbar_bending	lumbar_rotation	arm_flex_r	arm_add_r	arm_rot_r	elbow_flex_r	pro_sup_r	wrist_flex_r	wrist_dev_r	arm_flex_l	arm_add_l	arm_rot_l	elbow_flex_l	pro_sup_l	wrist_flex_l	wrist_dev_l
     27.81000000	     -0.65545947	     -6.10935595	     -3.63381672	      0.96719153	      0.92465298	      0.56968567	     11.74206015	      6.71077376	    -11.64081709	     24.36783910	     24.36783910	     14.77216459	     -5.87958156	      0.06419240	     23.84531619	    -16.14566708	      0.29313684	     69.85980354	     69.85980354	      9.16151993	    -19.52608143	     21.60043854	    -10.54175073	      7.59512378	      0.43623915	     13.36075098	    -16.47727945	    -10.80431749	     64.73606636	     45.53205524	      0.00000000	      0.00000000	     12.18690181	     -9.85459800	     -3.37378373	     52.60859660	     46.26715143	      0.00000000	      0.00000000
     27.82835714	     -0.51309140	     -6.14654038	     -3.04684811	      0.96570183	      0.92314424	      0.57171458	     11.71954457	      6.81140583	    -11.89874541	     25.15367295	     25.15367295	     15.36581473	     -6.52368217	     -0.11789956	     25.21587424	    -16.54430115	      0.22446866	     68.85474952	     68.85474952	     10.79031559	    -19.57704414	     21.91289206	    -10.83362876	      7.52123677	      0.15535517	     15.57730637	    -16.16136312	    -10.78967981	     66.07289291	     45.49517243	      0.00000000	      0.00000000	     10.07025115	     -9.63055600	     -2.73833451	     50.28543893	     46.17958438	      0.00000000	      0.00000000
     27.84671429	     -0.37501750	     -6.19329503	     -2.45265133	      0.96416552	      0.92168988	      0.57363156	     11.66373206	      6.95210715	    -12.06790397	     25.86933623	     25.86933623	     16.03394731	     -7.20664313	      0.10262472	     26.55741013	    -16.82444736	      0.19461281	     67.60529032	     67.60529032	     12.69848238	    -19.60633594	     23.34250007	    -11.05804953	      7.46740590	      0.30775666	     17.74590472	    -16.32523437	    -10.31194667	     66.83573473	     45.46166989	      0.00000000	      0.00000000	      9.01516692	     -9.25165658	     -1.14450112	     45.57384963	     46.02677296	      0.00000000	      0.00000000
     27.86507143	     -0.26349932	     -6.19759676	     -1.83269146	      0.96259138	      0.92021630	      0.57536661	     11.63751021	      7.02211452	    -12.31182357	     26.57536498	     26.57536498	     16.60681068	     -7.84501069	      0.08938576	     27.77630936	    -16.99086444	      0.09433214	     65.94509099	     65.94509099	     13.97463639	    -19.62825387	     23.55152838	    -11.33289925	      7.36563160	      0.12240239	     19.98837121	    -16.06083990	    -10.36189793	     68.15252685	     45.42909645	      0.00000000	      0.00000000	      7.17130097	     -9.01993324	     -0.28591436	     42.69444062	     45.92196031	      0.00000000	      0.00000000
     27.88342857	     -0.15233450	     -6.16216346	     -1.23748885	      0.96097550	      0.91893192	      0.57682431	     11.58598140	      7.04110960	    -12.54317664	     27.22942170	     27.22942170	     17.25503541	     -8.39726500	      0.38231764	     28.83997112	    -16.96842682	     -0.00784115	     63.93995345	     63.93995345	     15.08621815	    -19.63336793	     23.88432808	    -11.57211793	      7.24914605	      0.35907819	     22.12032113	    -16.20915750	    -10.19281235	     68.90509476	     45.40987793	      0.00000000	      0.00000000	      6.30973049	     -8.62566304	      1.27736390	     38.06693127	     45.76581009	      0.00000000	      0.00000000
     27.90178571	     -0.08986525	     -6.07089710	     -0.63286109	      0.95931616	      0.91775936	      0.57795183	     11.54059074	      6.98551576	    -12.78622868	     27.76972820	     27.76972820	     17.73004289	     -8.92442017	      0.30565262	     29.79670053	    -16.74376780	     -0.08262846	     61.59074598	     61.59074598	     15.72090809	    -19.63085697	     23.80486628	    -11.83340032	      7.06839290	      0.26689596	     24.24192704	    -15.99750305	    -10.30703385	     70.22370097	     45.37957678	      0.00000000	      0.00000000	      4.41549605	     -8.42620927	      1.76544706	     36.12963970	     45.68612490	      0.00000000	      0.00000000
     27.92014286	     -0.08451689	     -5.96929275	     -0.04902430	      0.95766988	      0.91685155	      0.57873352	     11.45188935	      6.90697441	    -13.04769027	     28.12106305	     28.12106305	     18.25676933	     -9.26735571	      0.55767881	     30.60136395	    -16.36282938	     -0.09653130	     58.88045507	     58.88045507	     15.89970537	    -19.61096557	     23.28615678	    -11.94466509	      6.91761015	      0.53500149	     26.25433969	    -16.21463798	    -10.05924068	     70.95142769	     45.35973500	      0.00000000	      0.00000000	      3.50366553	     -8.10096288	      3.08713430	     32.22473271	     45.52985033	      0.00000000	      0.00000000
     27.93850000	     -0.23569985	     -5.98141938	      0.53153810	      0.95587727	      0.91608701	      0.57924194	     11.43984548	      6.93998422	    -13.42713851	     28.23460102	     28.23460102	     18.47856712	     -9.56557686	      0.50937363	     31.49939767	    -15.92017818	      0.12559634	     55.99570794	     55.99570794	     15.96061780	    -19.56582879	     23.45804800	    -11.93956696	      6.86005483	      1.17285554	     27.85498861	    -16.73121909	    -10.28875599	     71.65709583	     45.35207813	      0.00000000	      0.00000000	      1.81246115	     -7.87137486	      3.19443796	     31.46019145	     45.49031566	      0.00000000	      0.00000000
     27.95685714	     -0.32889471	     -5.66812228	      1.09150472	      0.95413577	      0.91578847	      0.57927510	     11.30503671	      6.57987216	    -13.75718751	     28.29990811	     28.29990811	     18.82511220	     -9.65313671	      0.48798797	     31.98441642	    -15.05419390	      0.20548485	     52.73430713	     52.73430713	     15.29629672	    -19.50798309	     22.45194813	    -12.05387234	      6.52724261	      0.58367516	     30.09591629	    -16.01605454	     -9.99899528	     73.51470859	     45.29143129	      0.00000000	      0.00000000	      0.03137260	     -7.90399070	      3.79721956	     29.26318687	     45.38556882	      0.00000000	      0.00000000
     27.97521429	     -0.53954248	     -5.50465142	      1.61819940	      0.95245394	      0.91569598	      0.57909525	     11.14431295	      6.36909881	    -14.20563214	     28.07613568	     28.07613568	     19.04347289	     -9.53397878	      0.49181639	     32.41150602	    -14.24435798	      0.50343428	     49.28524052	     49.28524052	     14.22913084	    -19.41441758	     20.65926727	    -11.93294578	      6.31158796	      0.88236325	     31.80474077	    -16.31737433	     -9.63110592	     74.69923587	     45.25248729	      0.00000000	      0.00000000	     -1.38387755	     -7.81455332	      4.46920517	     27.66329025	     45.27401513	      0.00000000	      0.00000000
     27.99357143	     -0.72231018	     -5.27250485	      2.09636255	      0.95082064	      0.91605861	      0.57861572	     10.84291748	      6.09319131	    -14.59913216	     27.66622710	     27.66622710	     19.18274981	     -9.37458640	      0.43439090	     32.61618950	    -13.32486646	      0.84012793	     45.75921302	     45.75921302	     13.13048027	    -19.24414281	     19.52825743	    -11.91960835	      6.05458318	      1.14414966	     33.43902892	    -16.44872623	     -9.46290040	     76.01564141	     45.21512957	      0.00000000	      0.00000000	     -2.99220685	     -7.84703934	      4.84214808	     26.91479708	     45.19573231	      0.00000000	      0.00000000
     28.01192857	     -1.07324057	     -5.04671766	      2.52047222	      0.94920070	      0.91651228	      0.57800336	     10.62414717	      5.86812211	    -14.82754971	     27.05070463	     27.05070463	     19.20775155	     -9.29659755	      0.49041241	     32.87840480	    -12.33845712	      1.43724064	     42.33024021	     42.33024021	     12.46109967	    -18.93957278	     19.49389969	    -11.68283996	      5.70184028	      1.64862681	     34.89318363	    -16.79507308	     -9.49488771	     76.84954732	     45.19663285	      0.00000000	      0.00000000	     -4.44880665	     -7.87274414	      4.92426298	     26.43708562	     45.15945413	      0.00000000	      0.00000000
     28.03028571	     -1.22910066	     -4.88963904	      2.94253359	      0.94795925	      0.91739627	      0.57721377	     10.01962797	      5.65211439	    -15.42894026	     26.19844475	     26.19844475	     19.12427427	     -8.59851098	     -0.11591555	     32.54977299	    -11.61869321	      1.70615699	     38.49169258	     38.49169258	      9.89495211	    -18.52601448	     14.21636721	    -11.67487620	      5.50457163	      1.83662514	     36.24507691	    -17.11173801	     -8.54838218	     78.79019973	     45.12346329	      0.00000000	      0.00000000	     -6.35205875	     -8.15997543	      5.62082314	     26.89934066	     45.02694319	      0.00000000	      0.00000000
     28.04864286	     -1.48377406	     -4.75354507	      3.34134750	      0.94676744	      0.91837853	      0.57630285	      9.43696219	      5.55707189	    -15.76673503	     25.15151141	     25.15151141	     19.05607596	     -8.27925356	     -0.04782422	     32.46121329	    -10.88699804	      2.19813128	     35.30924127	     35.30924127	      9.42074681	    -17.57043887	     14.19095337	    -11.48910444	      5.27102266	      2.15589279	     37.64836061	    -17.14583083	     -8.53329626	     79.75243740	     45.10055651	      0.00000000	      0.00000000	     -7.77322877	     -8.26934872	      5.73820322	     26.55950681	     44.98833636	      0.00000000	      0.00000000
